<svg width="481" height="214" xmlns="http://www.w3.org/2000/svg" xmlns:xlink="http://www.w3.org/1999/xlink" xml:space="preserve" overflow="hidden"><defs><clipPath id="clip0"><rect x="1059" y="22" width="481" height="214"/></clipPath></defs><g clip-path="url(#clip0)" transform="translate(-1059 -22)"><path d="M1456.04 222.162 1540 222.162 1540 229.794 1456.04 229.794ZM1059 222.162 1142.96 222.162 1142.96 229.794 1059 229.794ZM1191.88 218.781 1191.88 225.096 1196.81 225.096C1198.28 225.096 1199.4 224.833 1200.17 224.305 1200.95 223.778 1201.33 222.978 1201.33 221.906 1201.33 220.843 1200.96 220.056 1200.22 219.546 1199.48 219.036 1198.37 218.781 1196.89 218.781ZM1360.93 218.507C1360.65 219.701 1360.22 221.004 1359.65 222.416L1357.43 227.829 1364.69 227.829 1362.35 222.39C1362.11 221.815 1361.88 221.235 1361.68 220.651 1361.48 220.067 1361.25 219.352 1360.99 218.507ZM1241.26 218.507C1240.98 219.701 1240.55 221.004 1239.97 222.416L1237.75 227.829 1245.01 227.829 1242.68 222.39C1242.43 221.815 1242.21 221.235 1242.01 220.651 1241.8 220.067 1241.57 219.352 1241.32 218.507ZM1395.99 216.507 1409.44 216.507 1409.44 218.781 1398.82 218.781 1398.82 224.639 1408.64 224.639 1408.64 226.914 1398.82 226.914 1398.82 233.398 1409.95 233.398 1409.95 235.673 1395.99 235.673ZM1373.05 216.507 1389.53 216.507 1389.53 218.781 1382.71 218.781 1382.71 235.673 1379.88 235.673 1379.88 218.781 1373.05 218.781ZM1359.46 216.507 1362.51 216.507 1371.22 235.673 1368.06 235.673 1365.55 229.842 1356.62 229.842 1354.23 235.673 1351.26 235.673ZM1333.16 216.507 1349.64 216.507 1349.64 218.781 1342.82 218.781 1342.82 235.673 1339.99 235.673 1339.99 218.781 1333.16 218.781ZM1291.27 216.507 1304.73 216.507 1304.73 218.781 1294.1 218.781 1294.1 224.639 1303.92 224.639 1303.92 226.914 1294.1 226.914 1294.1 233.398 1305.24 233.398 1305.24 235.673 1291.27 235.673ZM1257.61 216.507 1260.45 216.507 1260.45 233.398 1271.01 233.398 1271.01 235.673 1257.61 235.673ZM1239.78 216.507 1242.84 216.507 1251.54 235.673 1248.39 235.673 1245.88 229.842 1236.95 229.842 1234.55 235.673 1231.59 235.673ZM1212.73 216.507 1226.19 216.507 1226.19 218.781 1215.57 218.781 1215.57 224.639 1225.39 224.639 1225.39 226.914 1215.57 226.914 1215.57 233.398 1226.7 233.398 1226.7 235.673 1212.73 235.673ZM1189.05 216.507 1196.95 216.507C1199.4 216.507 1201.23 216.962 1202.44 217.873 1203.66 218.783 1204.27 220.102 1204.27 221.828 1204.27 223.144 1203.87 224.233 1203.07 225.096 1202.27 225.959 1201.1 226.574 1199.55 226.94L1199.54 227.018C1199.88 227.131 1200.19 227.312 1200.48 227.561 1200.77 227.809 1201.09 228.186 1201.44 228.692 1201.79 229.197 1202.23 229.916 1202.75 230.849L1205.47 235.673 1202.3 235.673 1200.05 231.529C1199.47 230.448 1198.94 229.622 1198.46 229.051 1197.97 228.48 1197.4 228.057 1196.76 227.783 1196.12 227.508 1195.32 227.371 1194.35 227.371L1191.88 227.371 1191.88 235.673 1189.05 235.673ZM1319.64 216.18C1321.11 216.18 1322.41 216.397 1323.54 216.833 1324.67 217.269 1325.57 217.901 1326.26 218.729 1326.95 219.557 1327.37 220.546 1327.54 221.697L1324.81 222.246 1324.75 222.246C1324.44 220.851 1323.87 219.853 1323.05 219.252 1322.22 218.651 1321.11 218.35 1319.69 218.35 1318.77 218.35 1317.95 218.472 1317.24 218.716 1316.53 218.96 1315.97 219.306 1315.57 219.755 1315.18 220.204 1314.98 220.725 1314.98 221.318 1314.98 221.928 1315.16 222.416 1315.52 222.782 1315.88 223.148 1316.43 223.453 1317.17 223.697 1317.92 223.941 1318.99 224.198 1320.38 224.469 1322.3 224.843 1323.82 225.275 1324.95 225.763 1326.07 226.251 1326.89 226.855 1327.4 227.574 1327.91 228.293 1328.17 229.188 1328.17 230.26 1328.17 231.341 1327.83 232.318 1327.17 233.189 1326.5 234.061 1325.58 234.747 1324.4 235.248 1323.22 235.75 1321.89 236 1320.41 236 1317.85 236 1315.8 235.464 1314.27 234.392 1312.73 233.32 1311.8 231.755 1311.47 229.698L1314.26 229.11C1314.45 230.679 1315.06 231.858 1316.08 232.647 1317.1 233.435 1318.5 233.83 1320.29 233.83 1321.23 233.83 1322.09 233.695 1322.88 233.424 1323.67 233.154 1324.29 232.777 1324.76 232.294 1325.22 231.81 1325.45 231.267 1325.45 230.666 1325.45 229.864 1325.23 229.239 1324.79 228.79 1324.35 228.341 1323.7 227.981 1322.84 227.711 1322.11 227.484 1321.07 227.227 1319.69 226.94 1318.88 226.774 1318.3 226.648 1317.97 226.561 1316.48 226.203 1315.32 225.772 1314.49 225.266 1313.65 224.761 1313.07 224.188 1312.75 223.547 1312.42 222.906 1312.26 222.146 1312.26 221.265 1312.26 220.307 1312.58 219.439 1313.22 218.664 1313.85 217.888 1314.73 217.28 1315.86 216.84 1316.98 216.4 1318.24 216.18 1319.64 216.18ZM1389.04 126.026 1411.03 126.026 1411.03 177.908 1430.53 177.908 1430.53 184.071 1369.73 184.071 1369.73 177.908 1389.04 177.908ZM1313.56 126.026 1335.55 126.026 1335.55 177.908 1355.23 177.908 1355.23 184.071 1294.06 184.071 1294.06 177.908 1313.56 177.908ZM1187.97 126.026 1209.96 126.026 1209.96 177.908 1237.77 177.908C1243.13 177.908 1247.34 177.384 1250.42 176.336 1253.5 175.289 1256.54 172.751 1259.52 168.722 1262.51 164.694 1264.82 159.899 1266.45 154.34 1268.09 148.781 1269.83 141.046 1271.67 131.135L1276.02 131.135 1272.6 184.071 1168.47 184.071 1168.47 177.908 1187.97 177.908ZM1512.48 92.7475 1512.48 113.323 1519.24 113.323C1521.44 113.323 1523.24 112.959 1524.65 112.232 1526.05 111.504 1527.1 110.365 1527.79 108.814 1528.48 107.263 1528.83 105.241 1528.83 102.748 1528.83 99.5665 1528.05 97.1046 1526.49 95.3619 1524.93 93.619 1522.52 92.7475 1519.24 92.7475ZM1480.72 92.7475 1480.72 102.172 1487.89 102.172C1489.95 102.172 1491.53 101.772 1492.62 100.971 1493.71 100.17 1494.26 98.9857 1494.26 97.4176 1494.26 95.8385 1493.74 94.6653 1492.71 93.8983 1491.68 93.131 1490.12 92.7475 1488.02 92.7475ZM1167.62 92.7475 1167.62 102.172 1174.8 102.172C1176.85 102.172 1178.43 101.772 1179.52 100.971 1180.61 100.17 1181.16 98.9857 1181.16 97.4176 1181.16 95.8385 1180.65 94.6653 1179.62 93.8983 1178.59 93.131 1177.02 92.7475 1174.93 92.7475ZM1455.13 92.426C1454.92 93.1255 1454.63 93.9686 1454.27 94.9557 1453.91 95.9427 1453.54 96.9155 1453.13 97.8745L1449.89 105.624 1460.72 105.624 1457.37 97.976C1456.63 96.3178 1455.91 94.4677 1455.2 92.426ZM1103.46 92.426C1103.25 93.1255 1102.97 93.9686 1102.61 94.9557 1102.25 95.9427 1101.87 96.9155 1101.47 97.8745L1098.23 105.624 1109.06 105.624 1105.71 97.976C1104.96 96.3178 1104.24 94.4677 1103.54 92.426ZM1383.07 92.223C1381.16 92.223 1379.43 92.6517 1377.89 93.509 1376.34 94.3662 1375.13 95.6185 1374.26 97.2655 1373.39 98.9123 1372.95 100.869 1372.95 103.137 1372.95 105.449 1373.42 107.412 1374.36 109.025 1375.31 110.638 1376.55 111.845 1378.09 112.646 1379.64 113.447 1381.29 113.848 1383.07 113.848 1385 113.848 1386.74 113.422 1388.28 112.57 1389.83 111.718 1391.04 110.48 1391.93 108.856 1392.81 107.232 1393.25 105.314 1393.25 103.103 1393.25 100.892 1392.82 98.963 1391.94 97.3162 1391.07 95.6692 1389.87 94.4087 1388.33 93.5344 1386.79 92.6601 1385.04 92.223 1383.07 92.223ZM1509.86 90.6324 1519.54 90.6324C1522.12 90.6324 1524.3 91.1345 1526.1 92.1384 1527.89 93.1423 1529.25 94.5581 1530.17 96.3855 1531.1 98.2128 1531.56 100.356 1531.56 102.815 1531.56 105.613 1531.07 107.954 1530.1 109.838 1529.12 111.721 1527.75 113.126 1525.98 114.051 1524.21 114.976 1522.09 115.438 1519.62 115.438L1509.86 115.438ZM1478.1 90.6324 1488.17 90.6324C1490.02 90.6324 1491.6 90.8918 1492.93 91.4108 1494.25 91.9297 1495.26 92.6883 1495.96 93.6865 1496.66 94.6849 1497.01 95.8948 1497.01 97.3162 1497.01 99.1098 1496.43 100.565 1495.29 101.682 1494.15 102.799 1492.51 103.526 1490.38 103.865L1490.38 103.966C1490.9 104.101 1491.4 104.361 1491.87 104.744 1492.34 105.128 1492.87 105.737 1493.45 106.572 1494.02 107.407 1494.71 108.568 1495.52 110.058L1498.42 115.438 1495.5 115.438 1493.33 111.292C1492.35 109.431 1491.49 108.016 1490.74 107.046 1490 106.075 1489.17 105.373 1488.26 104.939 1487.35 104.505 1486.2 104.287 1484.82 104.287L1480.72 104.287 1480.72 115.438 1478.1 115.438ZM1453.7 90.6324 1456.71 90.6324 1467.9 115.438 1465 115.438 1461.57 107.57 1449.12 107.57 1445.88 115.438 1443.13 115.438ZM1404.96 90.6324 1407.61 90.6324 1413.4 112.105 1413.47 112.105 1419.65 90.6324 1422.85 90.6324 1429.03 111.969 1429.1 111.969 1435.03 90.6831 1435.07 90.6324 1437.56 90.6324 1430.35 115.438 1427.77 115.438 1421.36 93.306 1421.32 93.2551 1421.27 93.2551 1414.71 115.438 1412.13 115.438ZM1337.43 90.6324 1340.05 90.6324 1340.05 101.191 1355.02 101.191 1355.02 90.6324 1357.64 90.6324 1357.64 115.438 1355.02 115.438 1355.02 103.306 1340.05 103.306 1340.05 115.438 1337.43 115.438ZM1294.32 90.6324 1310.99 90.6324 1310.99 92.7475 1296.94 92.7475 1296.94 101.58 1309.96 101.58 1309.96 103.695 1296.94 103.695 1296.94 113.323 1311.65 113.323 1311.65 115.438 1294.32 115.438ZM1226.26 90.6324 1228.9 90.6324 1243.96 111.817 1244.09 111.817 1244.09 90.6324 1246.51 90.6324 1246.51 115.438 1243.7 115.438 1228.75 94.3719 1228.67 94.3719 1228.67 115.438 1226.26 115.438ZM1196.77 90.6324 1213.43 90.6324 1213.43 92.7475 1199.38 92.7475 1199.38 101.58 1212.4 101.58 1212.4 103.695 1199.38 103.695 1199.38 113.323 1214.09 113.323 1214.09 115.438 1196.77 115.438ZM1165 90.6324 1175.08 90.6324C1176.92 90.6324 1178.51 90.8918 1179.83 91.4108 1181.16 91.9297 1182.17 92.6883 1182.87 93.6865 1183.56 94.6849 1183.91 95.8948 1183.91 97.3162 1183.91 99.1098 1183.34 100.565 1182.2 101.682 1181.05 102.799 1179.42 103.526 1177.28 103.865L1177.28 103.966C1177.81 104.101 1178.31 104.361 1178.78 104.744 1179.25 105.128 1179.77 105.737 1180.35 106.572 1180.93 107.407 1181.62 108.568 1182.42 110.058L1185.32 115.438 1182.4 115.438 1180.24 111.292C1179.26 109.431 1178.4 108.016 1177.65 107.046 1176.9 106.075 1176.07 105.373 1175.16 104.939 1174.25 104.505 1173.11 104.287 1171.73 104.287L1167.62 104.287 1167.62 115.438 1165 115.438ZM1121.36 90.6324 1124.01 90.6324 1129.8 112.105 1129.87 112.105 1136.05 90.6324 1139.25 90.6324 1145.43 111.969 1145.5 111.969 1151.43 90.6831 1151.47 90.6324 1153.96 90.6324 1146.74 115.438 1144.16 115.438 1137.76 93.306 1137.72 93.2551 1137.67 93.2551 1131.11 115.438 1128.53 115.438ZM1102.03 90.6324 1105.05 90.6324 1116.23 115.438 1113.33 115.438 1109.91 107.57 1097.46 107.57 1094.22 115.438 1091.47 115.438ZM1067.44 90.6324 1070.06 90.6324 1070.06 113.323 1083.24 113.323 1083.24 115.438 1067.44 115.438ZM1383.1 90.2094C1385.58 90.2094 1387.79 90.7338 1389.74 91.7829 1391.69 92.832 1393.22 94.3269 1394.33 96.2671 1395.43 98.2073 1395.98 100.463 1395.98 103.035 1395.98 105.573 1395.43 107.815 1394.32 109.761 1393.21 111.707 1391.67 113.21 1389.71 114.271 1387.75 115.331 1385.55 115.861 1383.1 115.861 1380.67 115.861 1378.47 115.337 1376.52 114.288 1374.57 113.239 1373.03 111.747 1371.91 109.812 1370.78 107.877 1370.22 105.63 1370.22 103.069 1370.22 100.486 1370.77 98.2242 1371.88 96.2841 1372.98 94.3439 1374.52 92.8461 1376.48 91.7915 1378.45 90.7369 1380.65 90.2094 1383.1 90.2094ZM1271.61 90.2094C1274.29 90.2094 1276.54 90.779 1278.36 91.9184 1280.19 93.0579 1281.49 94.7047 1282.25 96.8593L1279.71 97.4176C1279.07 95.7143 1278.05 94.4228 1276.67 93.5428 1275.28 92.663 1273.57 92.223 1271.54 92.223 1269.63 92.223 1267.93 92.6744 1266.44 93.5765 1264.95 94.479 1263.8 95.734 1262.99 97.3415 1262.18 98.9489 1261.78 100.779 1261.78 102.832 1261.78 105.009 1262.16 106.927 1262.91 108.585 1263.66 110.244 1264.77 111.535 1266.22 112.46 1267.67 113.385 1269.4 113.848 1271.42 113.848 1273.63 113.848 1275.5 113.309 1277.03 112.232 1278.55 111.154 1279.61 109.601 1280.22 107.57L1282.76 108.128C1282.26 109.809 1281.47 111.225 1280.41 112.375 1279.34 113.526 1278.05 114.395 1276.55 114.981 1275.04 115.568 1273.37 115.861 1271.55 115.861 1268.97 115.861 1266.74 115.337 1264.86 114.288 1262.98 113.239 1261.54 111.738 1260.55 109.787 1259.55 107.835 1259.05 105.528 1259.05 102.866 1259.05 100.362 1259.57 98.1537 1260.62 96.2417 1261.67 94.3298 1263.15 92.8461 1265.05 91.7915 1266.95 90.7369 1269.14 90.2094 1271.61 90.2094ZM1369.73 22 1430.53 22 1430.53 28.1643 1411.03 28.1643 1411.03 80.0448 1389.04 80.0448 1389.04 28.1643 1369.73 28.1643ZM1294.06 22 1355.23 22 1355.23 28.1643 1335.55 28.1643 1335.55 80.0448 1313.56 80.0448 1313.56 28.1643 1294.06 28.1643ZM1168.47 22 1230.56 22 1230.56 28.1643 1209.96 28.1643 1209.96 80.0448 1187.97 80.0448 1187.97 28.1643 1168.47 28.1643Z" fill="#321A2B" fill-rule="evenodd"/></g></svg>