<svg width="1710" height="1709" xmlns="http://www.w3.org/2000/svg" xmlns:xlink="http://www.w3.org/1999/xlink" xml:space="preserve" overflow="hidden"><g transform="translate(-1147 -1897)"><path d="M2423.14 2008.83 2458.7 2028.89C2766.72 2223.44 2926.71 2602.23 2827.46 2972.64 2728.21 3343.04 2400.25 3591.09 2036.23 3605.57L1995.41 3605.15 2013.07 3539.25 2033.58 3539.45C2369.43 3526.1 2671.99 3297.25 2763.56 2955.52 2855.13 2613.78 2707.52 2264.31 2423.35 2084.82L2405.48 2074.74ZM2008.6 1897.76 1990.94 1963.67 1970.43 1963.46C1634.59 1976.82 1332.02 2205.67 1240.45 2547.4 1148.88 2889.13 1296.49 3238.61 1580.66 3418.09L1598.53 3428.17 1580.87 3494.08 1545.31 3474.02C1237.3 3279.48 1077.31 2900.68 1176.56 2530.28 1275.81 2159.87 1603.76 1911.82 1967.78 1897.35Z" fill="#522B47" fill-rule="evenodd"/><path d="M1401.4 2450.77 1417.01 2466.38 1398.44 2506.39C1303.07 2741.58 1350.76 3021.21 1541.5 3211.96 1732.25 3402.71 2011.88 3450.39 2247.07 3355.02L2287.08 3336.45 2302.69 3352.06 2254.88 3374.25C2012.2 3472.67 1723.65 3423.46 1526.83 3226.63 1330 3029.81 1280.8 2741.27 1379.21 2498.58ZM1701.32 2150.85 1749.13 2128.66C1991.81 2030.25 2280.36 2079.45 2477.18 2276.28 2674.01 2473.1 2723.21 2761.65 2624.8 3004.33L2602.61 3052.15 2587 3036.53 2605.57 2996.52C2700.94 2761.33 2653.25 2481.7 2462.51 2290.95 2271.76 2100.21 1992.13 2052.52 1756.94 2147.9L1716.93 2166.47Z" fill="#08415C" fill-rule="evenodd"/></g></svg>