<svg width="934" height="417" xmlns="http://www.w3.org/2000/svg" xmlns:xlink="http://www.w3.org/1999/xlink" xml:space="preserve" overflow="hidden"><defs><clipPath id="clip0"><rect x="832" y="576" width="934" height="417"/></clipPath></defs><g clip-path="url(#clip0)" transform="translate(-832 -576)"><path d="M1602.97 966.036 1766 966.036 1766 980.906 1602.97 980.906ZM832 966.036 995.027 966.036 995.027 980.906 832 980.906ZM1090.03 959.448 1090.03 971.753 1099.59 971.753C1102.44 971.753 1104.62 971.239 1106.13 970.212 1107.63 969.184 1108.38 967.625 1108.38 965.536 1108.38 963.464 1107.66 961.932 1106.23 960.938 1104.79 959.944 1102.63 959.448 1099.76 959.448ZM1418.29 958.913C1417.74 961.239 1416.91 963.779 1415.8 966.53L1411.48 977.077 1425.58 977.077 1421.04 966.479C1420.57 965.358 1420.14 964.229 1419.74 963.091 1419.34 961.953 1418.9 960.56 1418.41 958.913ZM1185.91 958.913C1185.36 961.239 1184.53 963.779 1183.41 966.53L1179.1 977.077 1193.2 977.077 1188.66 966.479C1188.19 965.358 1187.75 964.229 1187.36 963.091 1186.96 961.953 1186.52 960.56 1186.02 958.913ZM1486.35 955.015 1512.48 955.015 1512.48 959.448 1491.86 959.448 1491.86 970.861 1510.92 970.861 1510.92 975.294 1491.86 975.294 1491.86 987.93 1513.47 987.93 1513.47 992.363 1486.35 992.363ZM1441.83 955.015 1473.83 955.015 1473.83 959.448 1460.58 959.448 1460.58 992.363 1455.08 992.363 1455.08 959.448 1441.83 959.448ZM1415.43 955.015 1421.36 955.015 1438.26 992.363 1432.14 992.363 1427.26 981.001 1409.92 981.001 1405.27 992.363 1399.51 992.363ZM1364.37 955.015 1396.36 955.015 1396.36 959.448 1383.12 959.448 1383.12 992.363 1377.61 992.363 1377.61 959.448 1364.37 959.448ZM1283.02 955.015 1309.15 955.015 1309.15 959.448 1288.52 959.448 1288.52 970.861 1307.59 970.861 1307.59 975.294 1288.52 975.294 1288.52 987.93 1310.14 987.93 1310.14 992.363 1283.02 992.363ZM1217.66 955.015 1223.17 955.015 1223.17 987.93 1243.67 987.93 1243.67 992.363 1217.66 992.363ZM1183.04 955.015 1188.97 955.015 1205.88 992.363 1199.75 992.363 1194.87 981.001 1177.54 981.001 1172.89 992.363 1167.13 992.363ZM1130.52 955.015 1156.64 955.015 1156.64 959.448 1136.02 959.448 1136.02 970.861 1155.08 970.861 1155.08 975.294 1136.02 975.294 1136.02 987.93 1157.64 987.93 1157.64 992.363 1130.52 992.363ZM1084.53 955.015 1099.87 955.015C1104.62 955.015 1108.17 955.902 1110.54 957.677 1112.9 959.452 1114.08 962.021 1114.08 965.384 1114.08 967.948 1113.31 970.071 1111.76 971.753 1110.21 973.434 1107.93 974.632 1104.92 975.345L1104.89 975.498C1105.56 975.718 1106.17 976.071 1106.72 976.555 1107.28 977.039 1107.9 977.774 1108.58 978.759 1109.26 979.744 1110.11 981.145 1111.13 982.962L1116.41 992.363 1110.25 992.363 1105.89 984.287C1104.77 982.181 1103.74 980.572 1102.79 979.459 1101.85 978.347 1100.75 977.523 1099.5 976.988 1098.26 976.453 1096.7 976.186 1094.82 976.186L1090.03 976.186 1090.03 992.363 1084.53 992.363ZM1338.1 954.378C1340.95 954.378 1343.48 954.802 1345.67 955.652 1347.87 956.501 1349.63 957.732 1350.96 959.346 1352.3 960.959 1353.12 962.887 1353.45 965.129L1348.14 966.199 1348.03 966.199C1347.42 963.481 1346.32 961.537 1344.72 960.365 1343.12 959.193 1340.95 958.607 1338.21 958.607 1336.42 958.607 1334.83 958.844 1333.45 959.32 1332.07 959.796 1330.99 960.471 1330.21 961.346 1329.44 962.22 1329.05 963.235 1329.05 964.39 1329.05 965.579 1329.4 966.53 1330.1 967.244 1330.8 967.957 1331.87 968.551 1333.32 969.027 1334.77 969.502 1336.84 970.003 1339.55 970.53 1343.27 971.26 1346.23 972.101 1348.41 973.052 1350.59 974.003 1352.18 975.179 1353.18 976.581 1354.17 977.982 1354.67 979.727 1354.67 981.816 1354.67 983.922 1354.02 985.824 1352.72 987.523 1351.43 989.221 1349.64 990.559 1347.35 991.535 1345.06 992.512 1342.48 993 1339.6 993 1334.63 993 1330.65 991.955 1327.67 989.866 1324.7 987.777 1322.89 984.729 1322.24 980.72L1327.66 979.574C1328.04 982.631 1329.22 984.928 1331.19 986.465 1333.17 988.002 1335.9 988.771 1339.38 988.771 1341.19 988.771 1342.86 988.508 1344.4 987.981 1345.93 987.454 1347.14 986.72 1348.04 985.777 1348.94 984.835 1349.39 983.778 1349.39 982.606 1349.39 981.043 1348.96 979.825 1348.11 978.95 1347.26 978.075 1345.99 977.375 1344.31 976.848 1342.91 976.406 1340.88 975.905 1338.21 975.345 1336.62 975.022 1335.51 974.776 1334.87 974.606 1331.97 973.91 1329.72 973.069 1328.1 972.084 1326.48 971.099 1325.36 969.982 1324.72 968.734 1324.09 967.485 1323.77 966.004 1323.77 964.288 1323.77 962.42 1324.39 960.73 1325.63 959.218 1326.87 957.707 1328.58 956.522 1330.77 955.664 1332.95 954.806 1335.4 954.378 1338.1 954.378ZM1472.88 778.705 1515.57 778.705 1515.57 879.802 1553.43 879.802 1553.43 891.811 1435.38 891.811 1435.38 879.802 1472.88 879.802ZM1326.3 778.705 1369 778.705 1369 879.802 1407.21 879.802 1407.21 891.811 1288.44 891.811 1288.44 879.802 1326.3 879.802ZM1082.43 778.705 1125.12 778.705 1125.12 879.802 1179.13 879.802C1189.53 879.802 1197.72 878.781 1203.71 876.738 1209.68 874.698 1215.58 869.753 1221.38 861.902 1227.18 854.053 1231.66 844.711 1234.83 833.877 1238 823.045 1241.38 807.972 1244.97 788.66L1253.4 788.66 1246.76 891.811 1044.57 891.811 1044.57 879.802 1082.43 879.802ZM1712.56 713.858 1712.56 753.952 1725.69 753.952C1729.95 753.952 1733.45 753.243 1736.18 751.825 1738.91 750.408 1740.95 748.187 1742.29 745.165 1743.63 742.143 1744.3 738.202 1744.3 733.345 1744.3 727.146 1742.79 722.349 1739.77 718.953 1736.74 715.557 1732.05 713.858 1725.69 713.858ZM1650.88 713.858 1650.88 732.224 1664.81 732.224C1668.81 732.224 1671.87 731.443 1673.99 729.883 1676.11 728.322 1677.18 726.014 1677.18 722.959 1677.18 719.882 1676.18 717.596 1674.18 716.101 1672.18 714.606 1669.14 713.858 1665.07 713.858ZM1042.92 713.858 1042.92 732.224 1056.85 732.224C1060.85 732.224 1063.91 731.443 1066.03 729.883 1068.15 728.322 1069.21 726.014 1069.21 722.959 1069.21 719.882 1068.21 717.596 1066.21 716.101 1064.21 714.606 1061.18 713.858 1057.11 713.858ZM1601.2 713.232C1600.78 714.595 1600.23 716.238 1599.54 718.161 1598.84 720.085 1598.1 721.98 1597.32 723.849L1591.03 738.95 1612.06 738.95 1605.55 724.047C1604.11 720.816 1602.71 717.21 1601.35 713.232ZM918.34 713.232C917.925 714.595 917.371 716.238 916.676 718.161 915.981 720.085 915.244 721.98 914.464 723.849L908.174 738.95 929.201 738.95 922.692 724.047C921.253 720.816 919.852 717.21 918.486 713.232ZM1461.27 712.836C1457.56 712.836 1454.21 713.672 1451.21 715.342 1448.21 717.013 1445.86 719.453 1444.17 722.662 1442.47 725.871 1441.63 729.685 1441.63 734.103 1441.63 738.609 1442.54 742.434 1444.37 745.577 1446.2 748.72 1448.61 751.072 1451.61 752.633 1454.61 754.194 1457.83 754.974 1461.27 754.974 1465.02 754.974 1468.4 754.144 1471.4 752.485 1474.39 750.825 1476.75 748.413 1478.47 745.247 1480.19 742.082 1481.05 738.345 1481.05 734.037 1481.05 729.729 1480.2 725.97 1478.51 722.761 1476.81 719.552 1474.47 717.095 1471.49 715.392 1468.5 713.688 1465.09 712.836 1461.27 712.836ZM1707.48 709.737 1726.27 709.737C1731.27 709.737 1735.51 710.715 1739 712.672 1742.49 714.628 1745.12 717.387 1746.92 720.948 1748.71 724.508 1749.6 728.685 1749.6 733.477 1749.6 738.928 1748.66 743.489 1746.77 747.16 1744.88 750.831 1742.22 753.568 1738.78 755.37 1735.34 757.172 1731.22 758.073 1726.42 758.073L1707.48 758.073ZM1645.8 709.737 1665.36 709.737C1668.95 709.737 1672.03 710.242 1674.6 711.254 1677.17 712.265 1679.13 713.743 1680.49 715.688 1681.84 717.634 1682.51 719.991 1682.51 722.761 1682.51 726.256 1681.41 729.091 1679.19 731.267 1676.97 733.444 1673.79 734.862 1669.64 735.521L1669.64 735.719C1670.67 735.983 1671.64 736.488 1672.55 737.235 1673.46 737.983 1674.48 739.17 1675.6 740.796 1676.72 742.423 1678.07 744.687 1679.63 747.589L1685.26 758.073 1679.59 758.073 1675.38 749.995C1673.48 746.368 1671.81 743.61 1670.36 741.72 1668.9 739.829 1667.3 738.461 1665.53 737.614 1663.76 736.768 1661.54 736.345 1658.85 736.345L1650.88 736.345 1650.88 758.073 1645.8 758.073ZM1598.42 709.737 1604.27 709.737 1625.99 758.073 1620.36 758.073 1613.71 742.742 1589.53 742.742 1583.24 758.073 1577.9 758.073ZM1503.78 709.737 1508.93 709.737 1520.16 751.578 1520.31 751.578 1532.3 709.737 1538.52 709.737 1550.51 751.314 1550.66 751.314 1562.18 709.836 1562.25 709.737 1567.08 709.737 1553.07 758.073 1548.06 758.073 1535.63 714.947 1535.56 714.848 1535.45 714.848 1522.72 758.073 1517.71 758.073ZM1372.66 709.737 1377.74 709.737 1377.74 730.312 1406.81 730.312 1406.81 709.737 1411.89 709.737 1411.89 758.073 1406.81 758.073 1406.81 734.433 1377.74 734.433 1377.74 758.073 1372.66 758.073ZM1288.95 709.737 1321.31 709.737 1321.31 713.858 1294.03 713.858 1294.03 731.07 1319.3 731.07 1319.3 735.191 1294.03 735.191 1294.03 753.952 1322.59 753.952 1322.59 758.073 1288.95 758.073ZM1156.78 709.737 1161.9 709.737 1191.16 751.017 1191.41 751.017 1191.41 709.737 1196.1 709.737 1196.1 758.073 1190.65 758.073 1161.61 717.024 1161.46 717.024 1161.46 758.073 1156.78 758.073ZM1099.51 709.737 1131.88 709.737 1131.88 713.858 1104.59 713.858 1104.59 731.07 1129.86 731.07 1129.86 735.191 1104.59 735.191 1104.59 753.952 1133.16 753.952 1133.16 758.073 1099.51 758.073ZM1037.83 709.737 1057.4 709.737C1060.98 709.737 1064.06 710.242 1066.63 711.254 1069.2 712.265 1071.17 713.743 1072.52 715.688 1073.87 717.634 1074.55 719.991 1074.55 722.761 1074.55 726.256 1073.44 729.091 1071.22 731.267 1069 733.444 1065.82 734.862 1061.68 735.521L1061.68 735.719C1062.7 735.983 1063.67 736.488 1064.58 737.235 1065.5 737.983 1066.52 739.17 1067.64 740.796 1068.76 742.423 1070.1 744.687 1071.66 747.589L1077.29 758.073 1071.62 758.073 1067.42 749.995C1065.52 746.368 1063.84 743.61 1062.39 741.72 1060.94 739.829 1059.33 738.461 1057.56 737.614 1055.8 736.768 1053.57 736.345 1050.89 736.345L1042.92 736.345 1042.92 758.073 1037.83 758.073ZM953.085 709.737 958.241 709.737 969.469 751.578 969.615 751.578 981.609 709.737 987.826 709.737 999.821 751.314 999.967 751.314 1011.49 709.836 1011.56 709.737 1016.39 709.737 1002.38 758.073 997.37 758.073 984.937 714.947 984.864 714.848 984.754 714.848 972.028 758.073 967.018 758.073ZM915.561 709.737 921.412 709.737 943.134 758.073 937.502 758.073 930.847 742.742 906.674 742.742 900.385 758.073 895.045 758.073ZM848.395 709.737 853.478 709.737 853.478 753.952 879.077 753.952 879.077 758.073 848.395 758.073ZM1461.34 708.913C1466.14 708.913 1470.44 709.935 1474.23 711.979 1478.02 714.023 1480.99 716.936 1483.13 720.717 1485.28 724.497 1486.35 728.894 1486.35 733.906 1486.35 738.851 1485.27 743.219 1483.12 747.012 1480.96 750.803 1477.98 753.732 1474.17 755.798 1470.37 757.865 1466.09 758.898 1461.34 758.898 1456.61 758.898 1452.35 757.876 1448.56 755.831 1444.77 753.787 1441.78 750.88 1439.6 747.11 1437.42 743.34 1436.32 738.961 1436.32 733.971 1436.32 728.937 1437.4 724.53 1439.54 720.75 1441.69 716.969 1444.67 714.051 1448.48 711.996 1452.3 709.941 1456.58 708.913 1461.34 708.913ZM1244.84 708.913C1250.04 708.913 1254.41 710.023 1257.96 712.243 1261.5 714.463 1264.02 717.672 1265.51 721.871L1260.57 722.959C1259.33 719.639 1257.36 717.123 1254.66 715.408 1251.97 713.694 1248.65 712.836 1244.7 712.836 1240.99 712.836 1237.7 713.716 1234.81 715.474 1231.92 717.232 1229.69 719.678 1228.11 722.81 1226.54 725.943 1225.76 729.509 1225.76 733.51 1225.76 737.752 1226.49 741.489 1227.95 744.72 1229.41 747.951 1231.55 750.468 1234.37 752.271 1237.18 754.073 1240.55 754.974 1244.48 754.974 1248.77 754.974 1252.4 753.924 1255.36 751.825 1258.32 749.726 1260.39 746.698 1261.56 742.742L1266.49 743.829C1265.52 747.105 1264 749.863 1261.92 752.105 1259.85 754.348 1257.35 756.041 1254.43 757.183 1251.5 758.326 1248.27 758.898 1244.74 758.898 1239.71 758.898 1235.38 757.876 1231.74 755.831 1228.09 753.787 1225.3 750.863 1223.36 747.061 1221.42 743.258 1220.45 738.763 1220.45 733.576 1220.45 728.696 1221.47 724.393 1223.51 720.667 1225.54 716.942 1228.41 714.051 1232.1 711.996 1235.79 709.941 1240.04 708.913 1244.84 708.913ZM1435.38 576 1553.43 576 1553.43 588.012 1515.57 588.012 1515.57 689.106 1472.88 689.106 1472.88 588.012 1435.38 588.012ZM1288.44 576 1407.21 576 1407.21 588.012 1369 588.012 1369 689.106 1326.3 689.106 1326.3 588.012 1288.44 588.012ZM1044.57 576 1165.13 576 1165.13 588.012 1125.12 588.012 1125.12 689.106 1082.43 689.106 1082.43 588.012 1044.57 588.012Z" fill="#FFFFFF" fill-rule="evenodd"/></g></svg>